<svg height="200pt" preserveAspectRatio="xMidYMid meet" viewBox="0 0 200 200" width="200pt" xmlns="http://www.w3.org/2000/svg"><g transform="matrix(.1 0 0 -.1 0 200)"><path d="m0 1000v-1000h1000 1000v1000 1000h-1000-1000zm806 355c84-52 122-159 94-261-13-46-60-104-109-135l-24-15 84-155c46-85 85-160 87-167 3-10-11-12-58-10l-62 3-82 153-81 152h-87-88v-155-155h-55-55v391 391l193-4 194-3zm384-270c57-168 107-305 110-305s52 137 110 305l105 305h63c56 0 63-2 58-17-4-10-68-184-144-388l-138-370h-54-54l-143 385c-79 212-143 386-143 388 0 1 28 2 63 2h62z"/><path d="m480 1153v-146l104 6c118 7 157 21 186 70 28 45 27 125-1 161-36 46-69 56-184 56h-105z"/></g></svg>